<svg xmlns="http://www.w3.org/2000/svg" xmlns:xlink="http://www.w3.org/1999/xlink" width="249.326" height="60" viewBox="0 0 249.326 60"><defs><clipPath id="a"><rect width="249.326" height="60" fill="#f8485e"/></clipPath></defs><g clip-path="url(#a)"><path d="M100.963,58.57c6.209.228,12.415.564,18.632.6,8.213.049,16.425-.16,24.639-.108,2.134.014,4.279.125,6.412.085,19.937.4,39.837.829,59.777.457,14.248-.427,24.053-1.822,33.311-13.848,8.2-10.654,8.252-32.795-5.732-38.614C224,1.314,208.72,1.424,193.8.8Q184.053.4,174.3.3c-7.245-.085-15.819,1.277-22.9-.035a32.3,32.3,0,0,0-5.227-.014Q141.441.211,136.717.1c-7.691-.2-15.395-.107-23.081.23C105.924.674,98.065.2,90.33.116a193.725,193.725,0,0,0-21.211.948C61.3,1.819,53.5,2.775,45.679,3.488c-10,.911-20.269.688-29.946,2.97C-.29,10.235-2.982,28.233,2.768,41.485c6.568,15.139,21.718,17.13,36.4,18.035a232.528,232.528,0,0,0,25.747.224c9.058-.445,18.018-1.429,27.094-1.384,2.985.015,5.968.1,8.949.209" transform="translate(0 0)" fill="#f8485e"/></g></svg>